<?xml version="1.0" standalone="no"?>
 <!DOCTYPE svg PUBLIC "-//W3C//DTD SVG 1.1//EN" 
 "http://www.w3.org/Graphics/SVG/1.1/DTD/svg11.dtd"> 
<svg xmlns="http://www.w3.org/2000/svg" version="1.1" 
    width="29.7002cm" height="21.0007cm" viewBox="0 0 116930 82680 ">
<title>SVG Picture created as spidey_sense-F_Cu.svg date 2016/12/27 14:22:56 </title>
  <desc>Picture generated by PCBNEW </desc>
<g style="fill:#000000; fill-opacity:1;stroke:#000000; stroke-opacity:1;
stroke-linecap:round; stroke-linejoin:round; "
 transform="translate(0 0) scale(1 1)">
</g>
<g style="fill:#000000; fill-opacity:0.0; 
stroke:#000000; stroke-width:19.685; stroke-opacity:1; 
stroke-linecap:round; stroke-linejoin:round;">
</g>
<g style="fill:#000000; fill-opacity:1.0; 
stroke:#000000; stroke-width:19.685; stroke-opacity:1; 
stroke-linecap:round; stroke-linejoin:round;">
<polyline style="fill-rule:evenodd;"
points="59812,38860
59812,38486
60069,38486
60069,38860
59812,38860
" /> 
<polyline style="fill-rule:evenodd;"
points="60187,39860
60187,39486
60444,39486
60444,39860
60187,39860
" /> 
<polyline style="fill-rule:evenodd;"
points="59437,39860
59437,39486
59694,39486
59694,39860
59437,39860
" /> 
<polyline style="fill-rule:evenodd;"
points="60254,38210
59824,38210
59824,37980
60254,37980
60254,38210
" /> 
<polyline style="fill-rule:evenodd;"
points="60254,37610
59824,37610
59824,37380
60254,37380
60254,37610
" /> 
<polyline style="fill-rule:evenodd;"
points="60611,37380
61041,37380
61041,37610
60611,37610
60611,37380
" /> 
<polyline style="fill-rule:evenodd;"
points="60611,37980
61041,37980
61041,38210
60611,38210
60611,37980
" /> 
<polyline style="fill-rule:evenodd;"
points="58839,37380
59270,37380
59270,37610
58839,37610
58839,37380
" /> 
<polyline style="fill-rule:evenodd;"
points="58839,37980
59270,37980
59270,38210
58839,38210
58839,37980
" /> 
<circle cx="54822.8" cy="39566.9" r="285.433" /> 
<circle cx="57283.5" cy="41338.6" r="285.433" /> 
<circle cx="56299.2" cy="41338.6" r="285.433" /> 
<circle cx="54822.8" cy="40452.8" r="285.433" /> 
<circle cx="54822.8" cy="36712.6" r="285.433" /> 
<circle cx="61515.7" cy="36712.6" r="285.433" /> 
<circle cx="54822.8" cy="37795.3" r="285.433" /> 
</g>
<g style="fill:#000000; fill-opacity:1.0; 
stroke:#000000; stroke-width:514.26; stroke-opacity:1; 
stroke-linecap:round; stroke-linejoin:round;">
<path d="M59506 42535
L60178 42535
" />
<path d="M59506 41535
L60178 41535
" />
<path d="M59506 40535
L60178 40535
" />
</g>
<g style="fill:#000000; fill-opacity:1.0; 
stroke:#000000; stroke-width:19.685; stroke-opacity:1; 
stroke-linecap:round; stroke-linejoin:round;">
<circle cx="56208.7" cy="42815" r="265.157" /> 
<circle cx="55208.7" cy="42815" r="265.157" /> 
</g>
<g style="fill:#000000; fill-opacity:1.0; 
stroke:#000000; stroke-width:590.551; stroke-opacity:1; 
stroke-linecap:round; stroke-linejoin:round;">
<path d="M54822 38681
L54822 38681
" />
</g>
<g style="fill:#000000; fill-opacity:1.0; 
stroke:#000000; stroke-width:100; stroke-opacity:1; 
stroke-linecap:round; stroke-linejoin:round;">
<path d="M54822 36712
L55413 36712
" />
<path d="M60334 36614
L61215 37495
" />
<path d="M58267 36614
L60334 36614
" />
<path d="M57972 36909
L58267 36614
" />
<path d="M57972 38484
L57972 36909
" />
<path d="M57775 38681
L57972 38484
" />
<path d="M55905 38681
L57775 38681
" />
<path d="M55708 38484
L55905 38681
" />
<path d="M55708 37007
L55708 38484
" />
<path d="M55413 36712
L55708 37007
" />
<path d="M55208 42814
L55208 42035
" />
<path d="M55905 41338
L56299 41338
" />
<path d="M55208 42035
L55905 41338
" />
<path d="M60728 41732
L60728 41633
" />
<path d="M61215 37495
L60826 37495
" />
<path d="M61417 37696
L61215 37495
" />
<path d="M61417 40944
L61417 37696
" />
<path d="M60728 41633
L61417 40944
" />
<path d="M56988 43799
L60433 43799
" />
<path d="M60531 41535
L59842 41535
" />
<path d="M60728 41732
L60531 41535
" />
<path d="M60728 43503
L60728 41732
" />
<path d="M60433 43799
L60728 43503
" />
<path d="M55208 42814
L55208 43397
" />
<path d="M55610 43799
L56988 43799
" />
<path d="M55208 43397
L55610 43799
" />
<path d="M60826 37495
L60039 37495
" />
<path d="M59565 39673
L59259 39673
" />
<path d="M59055 39468
L59055 38095
" />
<path d="M59259 39673
L59055 39468
" />
<path d="M54822 37795
L55314 38287
" />
<path d="M58764 37495
L59055 37495
" />
<path d="M58562 37696
L58764 37495
" />
<path d="M58562 39960
L58562 37696
" />
<path d="M58366 40157
L58562 39960
" />
<path d="M56102 40157
L58366 40157
" />
<path d="M55314 39370
L56102 40157
" />
<path d="M55314 38287
L55314 39370
" />
<path d="M57283 41338
L58464 41338
" />
<path d="M60826 40748
L60826 38095
" />
<path d="M60531 41043
L60826 40748
" />
<path d="M58759 41043
L60531 41043
" />
<path d="M58464 41338
L58759 41043
" />
<path d="M59940 38673
L59940 38193
" />
<path d="M59940 38193
L60039 38095
" />
<path d="M60826 38095
L60433 38095
" />
<path d="M60433 38095
L60039 38095
" />
<path d="M54822 39566
L55019 39566
" />
<path d="M55988 40535
L59842 40535
" />
<path d="M55019 39566
L55988 40535
" />
<path d="M54822 39566
L54822 38681
" />
</g>
<g style="fill:#000000; fill-opacity:1.0; 
stroke:#000000; stroke-width:19.685; stroke-opacity:1; 
stroke-linecap:round; stroke-linejoin:round;">
<polyline style="fill-rule:evenodd;"
points="62185,44074
62031,44074
62031,36754
62029,36653
62008,36555
61976,36477
61894,36447
61629,36712
61894,36977
61976,36948
62013,36854
62031,36754
62031,44074
61781,44074
61781,37091
61515,36826
61402,36939
61402,36712
61136,36447
61054,36477
61018,36571
61000,36670
61001,36771
61022,36870
61054,36948
61136,36977
61402,36712
61402,36939
61250,37091
61280,37173
61374,37210
61473,37228
61574,37226
61673,37205
61751,37173
61781,37091
61781,44074
54350,44074
54350,40659
54362,40688
54443,40718
54709,40452
54443,40187
54362,40217
54350,40246
54350,36338
54603,36338
54550,36373
54489,36432
54441,36502
54408,36581
54390,36664
54389,36749
54404,36832
54435,36911
54481,36982
54540,37043
54610,37092
54688,37126
54771,37144
54856,37146
54939,37131
55019,37101
55090,37055
55152,36996
55201,36927
55213,36900
55335,36900
55520,37085
55520,38484
55522,38501
55524,38518
55524,38519
55524,38520
55529,38537
55534,38553
55534,38554
55535,38555
55543,38571
55551,38586
55551,38587
55552,38588
55563,38601
55574,38615
55575,38616
55575,38616
55575,38616
55575,38617
55772,38813
55786,38824
55799,38836
55800,38836
55801,38837
55816,38845
55831,38853
55832,38854
55833,38854
55849,38859
55866,38864
55867,38864
55868,38865
55885,38866
55902,38868
55904,38868
55904,38868
55904,38868
55905,38868
57775,38868
57792,38867
57810,38865
57811,38865
57812,38865
57828,38860
57845,38855
57846,38855
57847,38854
57862,38846
57877,38838
57878,38837
57879,38837
57892,38826
57906,38815
57907,38814
57907,38814
57907,38814
57908,38813
58105,38617
58116,38603
58127,38590
58127,38589
58128,38588
58136,38573
58145,38558
58145,38557
58145,38556
58150,38539
58156,38523
58156,38522
58156,38521
58158,38504
58160,38486
58160,38484
58160,38484
58160,38484
58160,38484
58160,36987
58345,36801
60256,36801
60687,37232
60588,37232
60561,37237
60536,37248
60514,37262
60495,37282
60479,37304
60478,37307
60387,37307
60386,37305
60371,37282
60352,37263
60330,37248
60305,37238
60278,37232
60251,37232
59800,37232
59774,37237
59749,37248
59726,37262
59707,37282
59692,37304
59682,37329
59676,37355
59676,37382
59676,37633
59681,37660
59692,37685
59707,37707
59726,37726
59748,37742
59773,37752
59799,37757
59826,37758
60277,37758
60304,37752
60329,37742
60351,37727
60371,37708
60386,37686
60387,37683
60478,37683
60479,37685
60494,37707
60513,37726
60535,37742
60560,37752
60587,37757
60614,37758
61065,37758
61091,37752
61116,37742
61139,37727
61158,37708
61160,37705
61229,37774
61229,40867
60679,41417
60664,41402
60650,41391
60637,41380
60636,41380
60635,41379
60620,41371
60605,41362
60604,41362
60603,41362
60587,41356
60570,41351
60569,41351
60568,41351
60551,41349
60534,41347
60532,41347
60532,41347
60532,41347
60531,41347
60527,41347
60512,41319
60464,41259
60431,41231
60531,41231
60548,41229
60566,41227
60566,41227
60567,41227
60584,41222
60601,41217
60602,41217
60603,41216
60618,41208
60633,41200
60634,41200
60635,41199
60648,41188
60662,41177
60663,41176
60663,41176
60663,41176
60664,41176
60959,40880
60970,40867
60981,40854
60982,40853
60982,40852
60991,40837
60999,40822
60999,40821
61000,40820
61005,40803
61010,40787
61010,40786
61010,40785
61012,40767
61014,40750
61014,40748
61014,40748
61014,40748
61014,40748
61014,38358
61065,38358
61091,38352
61116,38342
61139,38327
61158,38308
61173,38286
61184,38261
61189,38234
61189,38207
61189,37956
61184,37930
61174,37905
61159,37882
61140,37863
61117,37848
61092,37838
61066,37832
61039,37832
60588,37832
60561,37837
60536,37848
60514,37862
60495,37882
60479,37904
60478,37907
60433,37907
60387,37907
60386,37905
60371,37882
60352,37863
60330,37848
60305,37838
60278,37832
60251,37832
59800,37832
59774,37837
59749,37848
59726,37862
59707,37882
59692,37904
59682,37929
59676,37955
59676,37982
59676,38233
59681,38260
59692,38285
59707,38307
59726,38326
59748,38342
59753,38344
59753,38347
59737,38353
59715,38368
59696,38387
59681,38410
59670,38435
59665,38461
59665,38488
59665,38883
59670,38910
59680,38935
59695,38957
59714,38976
59737,38992
59762,39002
59788,39007
59815,39008
60092,39008
60118,39002
60143,38992
60166,38977
60185,38958
60200,38936
60211,38911
60216,38884
60216,38857
60216,38462
60211,38436
60201,38411
60186,38388
60167,38369
60150,38358
60277,38358
60304,38352
60329,38342
60351,38327
60371,38308
60386,38286
60387,38283
60433,38283
60478,38283
60479,38285
60494,38307
60513,38326
60535,38342
60560,38352
60587,38357
60614,38358
60638,38358
60638,39357
60624,39335
60593,39305
60557,39281
60517,39264
60475,39256
60439,39256
60384,39311
60384,39592
60404,39592
60404,39753
60384,39753
60384,40034
60439,40089
60475,40089
60517,40081
60557,40065
60593,40041
60624,40010
60638,39988
60638,40670
60453,40855
60411,40855
60460,40815
60509,40756
60546,40688
60569,40614
60577,40538
60570,40461
60548,40387
60512,40319
60464,40259
60405,40209
60338,40172
60264,40149
60246,40147
60246,40034
60246,39753
60246,39592
60246,39311
60192,39256
60156,39256
60114,39264
60074,39281
60038,39305
60007,39335
59983,39371
59967,39410
59958,39453
59958,39496
59958,39537
60013,39592
60246,39592
60246,39753
60013,39753
59958,39808
59958,39850
59958,39893
59967,39935
59983,39975
60007,40010
60038,40041
60074,40065
60114,40081
60156,40089
60192,40089
60246,40034
60246,40147
60187,40140
60182,40140
59502,40140
59425,40148
59352,40170
59284,40206
59224,40255
59175,40314
59157,40347
56065,40347
56057,40339
56063,40341
56064,40341
56065,40341
56082,40343
56099,40345
56101,40345
56101,40345
56101,40345
56102,40345
58366,40345
58383,40343
58400,40342
58401,40341
58402,40341
58419,40336
58435,40331
58436,40331
58437,40331
58453,40322
58468,40314
58469,40314
58470,40313
58483,40302
58497,40292
58498,40290
58498,40290
58498,40290
58498,40290
58695,40093
58706,40080
58717,40066
58718,40065
58719,40065
58727,40049
58735,40034
58735,40033
58736,40032
58741,40016
58746,39999
58746,39998
58747,39997
58748,39980
58750,39963
58750,39961
58750,39961
58750,39961
58750,39960
58750,38332
58764,38342
58789,38352
58815,38357
58842,38358
58867,38358
58867,39468
58869,39485
58870,39503
58870,39503
58870,39504
58875,39521
58880,39538
58881,39539
58881,39540
58889,39555
58897,39570
58898,39571
58898,39572
58909,39585
58920,39599
58921,39600
58921,39600
58921,39600
58922,39601
59127,39806
59140,39817
59153,39828
59154,39828
59155,39829
59170,39837
59185,39845
59186,39846
59187,39846
59204,39851
59220,39856
59221,39857
59222,39857
59239,39859
59257,39861
59259,39861
59259,39861
59259,39861
59259,39861
59290,39861
59290,39883
59295,39910
59305,39935
59320,39957
59339,39976
59362,39992
59387,40002
59413,40007
59440,40008
59717,40008
59743,40002
59768,39992
59791,39977
59810,39958
59825,39936
59836,39911
59841,39884
59841,39857
59841,39462
59836,39436
59826,39411
59811,39388
59792,39369
59769,39354
59744,39343
59718,39338
59691,39338
59414,39338
59387,39343
59362,39353
59340,39368
59321,39387
59306,39410
59295,39435
59294,39442
59242,39390
59242,38358
59293,38358
59320,38352
59345,38342
59367,38327
59386,38308
59401,38286
59412,38261
59417,38234
59418,38207
59417,37956
59412,37930
59402,37905
59387,37882
59368,37863
59345,37848
59321,37838
59294,37832
59267,37832
58816,37832
58790,37837
58765,37848
58750,37857
58750,37774
58777,37747
58789,37752
58815,37757
58842,37758
59293,37758
59320,37752
59345,37742
59367,37727
59386,37708
59401,37686
59412,37661
59417,37634
59418,37607
59417,37356
59412,37330
59402,37305
59387,37282
59368,37263
59345,37248
59321,37238
59294,37232
59267,37232
58816,37232
58790,37237
58765,37248
58742,37262
58723,37282
58708,37304
58702,37318
58694,37320
58693,37321
58693,37321
58677,37329
58662,37337
58661,37338
58660,37338
58647,37349
58633,37360
58632,37361
58632,37362
58632,37362
58631,37362
58430,37564
58419,37577
58408,37590
58407,37591
58406,37592
58398,37607
58390,37622
58390,37623
58389,37624
58384,37641
58379,37657
58379,37658
58378,37659
58377,37676
58375,37694
58375,37696
58375,37696
58375,37696
58375,37696
58375,39882
58288,39969
56180,39969
55502,39292
55502,38287
55501,38270
55499,38252
55499,38251
55499,38250
55494,38234
55489,38217
55488,38216
55488,38215
55480,38200
55472,38185
55471,38184
55471,38183
55460,38170
55449,38156
55448,38155
55448,38155
55448,38155
55447,38154
55232,37939
55235,37932
55254,37849
55255,37752
55239,37669
55207,37590
55160,37520
55100,37459
55029,37412
54951,37379
54868,37362
54783,37361
54699,37377
54621,37409
54550,37456
54489,37515
54441,37585
54408,37663
54390,37746
54389,37831
54404,37915
54435,37994
54481,38065
54540,38126
54610,38175
54688,38209
54771,38227
54856,38229
54939,38214
54966,38204
55127,38365
55127,38372
55069,38323
54995,38283
54914,38257
54830,38248
54824,38248
54820,38248
54736,38256
54655,38280
54581,38320
54515,38373
54461,38438
54421,38513
54396,38594
54387,38678
54395,38762
54419,38843
54458,38918
54511,38984
54576,39038
54635,39070
54635,39175
54621,39181
54550,39227
54489,39287
54441,39357
54408,39435
54390,39518
54389,39603
54404,39686
54435,39765
54481,39837
54540,39898
54610,39946
54652,39965
54587,39991
54557,40073
54822,40339
55088,40073
55058,39991
54991,39965
55019,39955
55090,39909
55093,39906
55855,40668
55868,40679
55882,40690
55882,40690
55883,40691
55899,40699
55914,40708
55915,40708
55916,40708
55932,40713
55949,40719
55950,40719
55951,40719
55968,40721
55985,40723
55987,40723
55987,40723
55987,40723
55988,40723
59157,40723
59172,40751
59220,40811
59272,40855
58759,40855
58742,40857
58725,40858
58724,40858
58723,40859
58706,40864
58690,40868
58689,40869
58688,40869
58672,40877
58657,40885
58656,40886
58655,40886
58642,40897
58628,40908
58627,40910
58627,40910
58627,40910
58627,40910
58386,41150
57674,41150
57667,41134
57620,41063
57560,41003
57490,40955
57412,40922
57328,40905
57244,40905
57160,40921
57081,40952
57010,40999
56950,41058
56902,41128
56868,41207
56851,41290
56849,41374
56865,41458
56896,41537
56942,41608
57001,41669
57071,41718
57148,41752
57231,41770
57316,41772
57400,41757
57479,41727
57551,41681
57612,41622
57661,41553
57673,41526
58464,41526
58481,41524
58499,41523
58500,41522
58501,41522
58517,41517
58534,41512
58535,41512
58536,41512
58551,41504
58566,41496
58567,41495
58568,41495
58581,41484
58595,41473
58596,41471
58596,41471
58596,41471
58597,41471
58837,41231
59253,41231
59224,41255
59175,41314
59138,41382
59115,41456
59107,41532
59114,41609
59136,41683
59172,41751
59220,41811
59279,41861
59347,41898
59420,41921
59497,41930
59502,41930
60182,41930
60259,41922
60332,41900
60400,41864
60460,41815
60499,41768
60540,41810
60540,42372
60512,42319
60464,42259
60405,42209
60338,42172
60264,42149
60187,42140
60182,42140
59502,42140
59425,42148
59352,42170
59284,42206
59224,42255
59175,42314
59138,42382
59115,42456
59107,42532
59114,42609
59136,42683
59172,42751
59220,42811
59279,42861
59347,42898
59420,42921
59497,42930
59502,42930
60182,42930
60259,42922
60332,42900
60400,42864
60460,42815
60509,42756
60540,42699
60540,43426
60355,43611
56988,43611
56704,43611
56704,42852
56702,42755
56681,42660
56652,42591
56572,42564
56459,42677
56459,42450
56432,42370
56341,42335
56245,42319
56148,42321
56054,42342
55985,42370
55958,42450
56208,42701
56459,42450
56459,42677
56322,42814
56572,43065
56652,43038
56687,42947
56704,42852
56704,43611
56459,43611
56459,43179
56208,42928
56095,43042
56095,42814
55844,42564
55764,42591
55729,42682
55712,42777
55715,42874
55736,42969
55764,43038
55844,43065
56095,42814
56095,43042
55958,43179
55985,43259
56075,43293
56171,43310
56268,43308
56363,43287
56432,43259
56459,43179
56459,43611
55688,43611
55396,43319
55396,43184
55464,43141
55522,43085
55569,43019
55602,42945
55620,42866
55621,42774
55605,42695
55574,42620
55530,42552
55473,42495
55405,42450
55396,42446
55396,42113
55935,41573
55958,41608
56017,41669
56086,41718
56164,41752
56247,41770
56332,41772
56416,41757
56495,41727
56567,41681
56628,41622
56677,41553
56712,41475
56730,41393
56732,41296
56715,41212
56683,41134
56636,41063
56576,41003
56506,40955
56427,40922
56344,40905
56259,40905
56176,40921
56097,40952
56026,40999
55965,41058
55917,41128
55908,41150
55905,41150
55888,41152
55870,41153
55870,41154
55869,41154
55852,41159
55835,41164
55834,41164
55833,41164
55818,41173
55803,41181
55802,41181
55801,41182
55788,41193
55774,41203
55773,41205
55773,41205
55773,41205
55772,41205
55338,41639
55338,40494
55336,40393
55315,40295
55283,40217
55201,40187
54936,40452
55201,40718
55283,40688
55320,40594
55338,40494
55338,41639
55088,41890
55088,40831
54822,40566
54557,40831
54587,40913
54681,40950
54780,40968
54881,40966
54980,40945
55058,40913
55088,40831
55088,41890
55075,41902
55064,41916
55053,41929
55053,41930
55052,41930
55044,41946
55036,41961
55035,41962
55035,41963
55030,41979
55024,41996
55024,41997
55024,41998
55022,42015
55020,42032
55020,42034
55020,42034
55020,42034
55020,42035
55020,42445
55016,42447
54948,42491
54890,42548
54845,42615
54813,42689
54796,42768
54795,42849
54809,42929
54839,43004
54883,43072
54939,43130
55006,43177
55020,43183
55020,43397
55022,43414
55024,43432
55024,43433
55024,43434
55029,43450
55034,43467
55034,43468
55035,43469
55043,43484
55051,43499
55051,43500
55052,43501
55063,43514
55074,43528
55075,43529
55075,43529
55075,43529
55075,43530
55477,43932
55490,43943
55504,43954
55505,43954
55505,43955
55521,43963
55536,43971
55537,43972
55538,43972
55554,43977
55571,43982
55572,43983
55573,43983
55590,43985
55607,43986
55609,43987
55609,43987
55609,43987
55610,43987
56988,43987
60433,43987
60450,43985
60467,43983
60468,43983
60469,43983
60486,43978
60502,43973
60503,43973
60504,43972
60519,43964
60535,43956
60536,43956
60536,43955
60550,43944
60563,43933
60565,43932
60565,43932
60565,43932
60565,43932
60861,43636
60872,43623
60883,43610
60883,43609
60884,43608
60892,43593
60900,43577
60901,43576
60901,43576
60906,43559
60912,43542
60912,43542
60912,43541
60914,43523
60916,43506
60916,43504
60916,43504
60916,43504
60916,43503
60916,41732
60916,41711
61550,41077
61561,41064
61572,41050
61572,41050
61573,41049
61581,41034
61589,41018
61590,41017
61590,41017
61595,41000
61601,40983
61601,40982
61601,40982
61603,40964
61605,40947
61605,40945
61605,40945
61605,40945
61605,40944
61605,37696
61603,37679
61601,37662
61601,37661
61601,37660
61596,37643
61591,37627
61591,37626
61590,37625
61582,37609
61574,37594
61574,37593
61573,37592
61562,37579
61551,37565
61550,37564
61550,37564
61550,37564
61550,37564
61348,37362
61348,37362
60467,36481
60454,36470
60440,36459
60439,36458
60439,36458
60423,36449
60408,36441
60407,36441
60406,36440
60390,36435
60373,36430
60372,36430
60371,36430
60354,36428
60337,36426
60335,36426
60335,36426
60335,36426
60334,36426
58267,36426
58250,36428
58233,36429
58232,36429
58231,36429
58214,36434
58197,36439
58197,36440
58196,36440
58180,36448
58165,36456
58164,36457
58163,36457
58150,36468
58136,36479
58135,36480
58135,36480
58135,36480
58134,36481
57839,36776
57828,36790
57817,36803
57817,36804
57816,36804
57808,36820
57799,36835
57799,36836
57799,36837
57795,36849
57795,36338
61255,36338
61515,36599
61776,36338
62185,36338
62185,44074
" /> 
</g>
<g style="fill:#000000; fill-opacity:0.0; 
stroke:#000000; stroke-width:39.3701; stroke-opacity:1; 
stroke-linecap:round; stroke-linejoin:round;">
<polyline fill="none;"
points="62185,44074
62031,44074
62031,36754
62029,36653
62008,36555
61976,36477
61894,36447
61629,36712
61894,36977
61976,36948
62013,36854
62031,36754
62031,44074
61781,44074
61781,37091
61515,36826
61402,36939
61402,36712
61136,36447
61054,36477
61018,36571
61000,36670
61001,36771
61022,36870
61054,36948
61136,36977
61402,36712
61402,36939
61250,37091
61280,37173
61374,37210
61473,37228
61574,37226
61673,37205
61751,37173
61781,37091
61781,44074
54350,44074
54350,40659
54362,40688
54443,40718
54709,40452
54443,40187
54362,40217
54350,40246
54350,36338
54603,36338
54550,36373
54489,36432
54441,36502
54408,36581
54390,36664
54389,36749
54404,36832
54435,36911
54481,36982
54540,37043
54610,37092
54688,37126
54771,37144
54856,37146
54939,37131
55019,37101
55090,37055
55152,36996
55201,36927
55213,36900
55335,36900
55520,37085
55520,38484
55522,38501
55524,38518
55524,38519
55524,38520
55529,38537
55534,38553
55534,38554
55535,38555
55543,38571
55551,38586
55551,38587
55552,38588
55563,38601
55574,38615
55575,38616
55575,38616
55575,38616
55575,38617
55772,38813
55786,38824
55799,38836
55800,38836
55801,38837
55816,38845
55831,38853
55832,38854
55833,38854
55849,38859
55866,38864
55867,38864
55868,38865
55885,38866
55902,38868
55904,38868
55904,38868
55904,38868
55905,38868
57775,38868
57792,38867
57810,38865
57811,38865
57812,38865
57828,38860
57845,38855
57846,38855
57847,38854
57862,38846
57877,38838
57878,38837
57879,38837
57892,38826
57906,38815
57907,38814
57907,38814
57907,38814
57908,38813
58105,38617
58116,38603
58127,38590
58127,38589
58128,38588
58136,38573
58145,38558
58145,38557
58145,38556
58150,38539
58156,38523
58156,38522
58156,38521
58158,38504
58160,38486
58160,38484
58160,38484
58160,38484
58160,38484
58160,36987
58345,36801
60256,36801
60687,37232
60588,37232
60561,37237
60536,37248
60514,37262
60495,37282
60479,37304
60478,37307
60387,37307
60386,37305
60371,37282
60352,37263
60330,37248
60305,37238
60278,37232
60251,37232
59800,37232
59774,37237
59749,37248
59726,37262
59707,37282
59692,37304
59682,37329
59676,37355
59676,37382
59676,37633
59681,37660
59692,37685
59707,37707
59726,37726
59748,37742
59773,37752
59799,37757
59826,37758
60277,37758
60304,37752
60329,37742
60351,37727
60371,37708
60386,37686
60387,37683
60478,37683
60479,37685
60494,37707
60513,37726
60535,37742
60560,37752
60587,37757
60614,37758
61065,37758
61091,37752
61116,37742
61139,37727
61158,37708
61160,37705
61229,37774
61229,40867
60679,41417
60664,41402
60650,41391
60637,41380
60636,41380
60635,41379
60620,41371
60605,41362
60604,41362
60603,41362
60587,41356
60570,41351
60569,41351
60568,41351
60551,41349
60534,41347
60532,41347
60532,41347
60532,41347
60531,41347
60527,41347
60512,41319
60464,41259
60431,41231
60531,41231
60548,41229
60566,41227
60566,41227
60567,41227
60584,41222
60601,41217
60602,41217
60603,41216
60618,41208
60633,41200
60634,41200
60635,41199
60648,41188
60662,41177
60663,41176
60663,41176
60663,41176
60664,41176
60959,40880
60970,40867
60981,40854
60982,40853
60982,40852
60991,40837
60999,40822
60999,40821
61000,40820
61005,40803
61010,40787
61010,40786
61010,40785
61012,40767
61014,40750
61014,40748
61014,40748
61014,40748
61014,40748
61014,38358
61065,38358
61091,38352
61116,38342
61139,38327
61158,38308
61173,38286
61184,38261
61189,38234
61189,38207
61189,37956
61184,37930
61174,37905
61159,37882
61140,37863
61117,37848
61092,37838
61066,37832
61039,37832
60588,37832
60561,37837
60536,37848
60514,37862
60495,37882
60479,37904
60478,37907
60433,37907
60387,37907
60386,37905
60371,37882
60352,37863
60330,37848
60305,37838
60278,37832
60251,37832
59800,37832
59774,37837
59749,37848
59726,37862
59707,37882
59692,37904
59682,37929
59676,37955
59676,37982
59676,38233
59681,38260
59692,38285
59707,38307
59726,38326
59748,38342
59753,38344
59753,38347
59737,38353
59715,38368
59696,38387
59681,38410
59670,38435
59665,38461
59665,38488
59665,38883
59670,38910
59680,38935
59695,38957
59714,38976
59737,38992
59762,39002
59788,39007
59815,39008
60092,39008
60118,39002
60143,38992
60166,38977
60185,38958
60200,38936
60211,38911
60216,38884
60216,38857
60216,38462
60211,38436
60201,38411
60186,38388
60167,38369
60150,38358
60277,38358
60304,38352
60329,38342
60351,38327
60371,38308
60386,38286
60387,38283
60433,38283
60478,38283
60479,38285
60494,38307
60513,38326
60535,38342
60560,38352
60587,38357
60614,38358
60638,38358
60638,39357
60624,39335
60593,39305
60557,39281
60517,39264
60475,39256
60439,39256
60384,39311
60384,39592
60404,39592
60404,39753
60384,39753
60384,40034
60439,40089
60475,40089
60517,40081
60557,40065
60593,40041
60624,40010
60638,39988
60638,40670
60453,40855
60411,40855
60460,40815
60509,40756
60546,40688
60569,40614
60577,40538
60570,40461
60548,40387
60512,40319
60464,40259
60405,40209
60338,40172
60264,40149
60246,40147
60246,40034
60246,39753
60246,39592
60246,39311
60192,39256
60156,39256
60114,39264
60074,39281
60038,39305
60007,39335
59983,39371
59967,39410
59958,39453
59958,39496
59958,39537
60013,39592
60246,39592
60246,39753
60013,39753
59958,39808
59958,39850
59958,39893
59967,39935
59983,39975
60007,40010
60038,40041
60074,40065
60114,40081
60156,40089
60192,40089
60246,40034
60246,40147
60187,40140
60182,40140
59502,40140
59425,40148
59352,40170
59284,40206
59224,40255
59175,40314
59157,40347
56065,40347
56057,40339
56063,40341
56064,40341
56065,40341
56082,40343
56099,40345
56101,40345
56101,40345
56101,40345
56102,40345
58366,40345
58383,40343
58400,40342
58401,40341
58402,40341
58419,40336
58435,40331
58436,40331
58437,40331
58453,40322
58468,40314
58469,40314
58470,40313
58483,40302
58497,40292
58498,40290
58498,40290
58498,40290
58498,40290
58695,40093
58706,40080
58717,40066
58718,40065
58719,40065
58727,40049
58735,40034
58735,40033
58736,40032
58741,40016
58746,39999
58746,39998
58747,39997
58748,39980
58750,39963
58750,39961
58750,39961
58750,39961
58750,39960
58750,38332
58764,38342
58789,38352
58815,38357
58842,38358
58867,38358
58867,39468
58869,39485
58870,39503
58870,39503
58870,39504
58875,39521
58880,39538
58881,39539
58881,39540
58889,39555
58897,39570
58898,39571
58898,39572
58909,39585
58920,39599
58921,39600
58921,39600
58921,39600
58922,39601
59127,39806
59140,39817
59153,39828
59154,39828
59155,39829
59170,39837
59185,39845
59186,39846
59187,39846
59204,39851
59220,39856
59221,39857
59222,39857
59239,39859
59257,39861
59259,39861
59259,39861
59259,39861
59259,39861
59290,39861
59290,39883
59295,39910
59305,39935
59320,39957
59339,39976
59362,39992
59387,40002
59413,40007
59440,40008
59717,40008
59743,40002
59768,39992
59791,39977
59810,39958
59825,39936
59836,39911
59841,39884
59841,39857
59841,39462
59836,39436
59826,39411
59811,39388
59792,39369
59769,39354
59744,39343
59718,39338
59691,39338
59414,39338
59387,39343
59362,39353
59340,39368
59321,39387
59306,39410
59295,39435
59294,39442
59242,39390
59242,38358
59293,38358
59320,38352
59345,38342
59367,38327
59386,38308
59401,38286
59412,38261
59417,38234
59418,38207
59417,37956
59412,37930
59402,37905
59387,37882
59368,37863
59345,37848
59321,37838
59294,37832
59267,37832
58816,37832
58790,37837
58765,37848
58750,37857
58750,37774
58777,37747
58789,37752
58815,37757
58842,37758
59293,37758
59320,37752
59345,37742
59367,37727
59386,37708
59401,37686
59412,37661
59417,37634
59418,37607
59417,37356
59412,37330
59402,37305
59387,37282
59368,37263
59345,37248
59321,37238
59294,37232
59267,37232
58816,37232
58790,37237
58765,37248
58742,37262
58723,37282
58708,37304
58702,37318
58694,37320
58693,37321
58693,37321
58677,37329
58662,37337
58661,37338
58660,37338
58647,37349
58633,37360
58632,37361
58632,37362
58632,37362
58631,37362
58430,37564
58419,37577
58408,37590
58407,37591
58406,37592
58398,37607
58390,37622
58390,37623
58389,37624
58384,37641
58379,37657
58379,37658
58378,37659
58377,37676
58375,37694
58375,37696
58375,37696
58375,37696
58375,37696
58375,39882
58288,39969
56180,39969
55502,39292
55502,38287
55501,38270
55499,38252
55499,38251
55499,38250
55494,38234
55489,38217
55488,38216
55488,38215
55480,38200
55472,38185
55471,38184
55471,38183
55460,38170
55449,38156
55448,38155
55448,38155
55448,38155
55447,38154
55232,37939
55235,37932
55254,37849
55255,37752
55239,37669
55207,37590
55160,37520
55100,37459
55029,37412
54951,37379
54868,37362
54783,37361
54699,37377
54621,37409
54550,37456
54489,37515
54441,37585
54408,37663
54390,37746
54389,37831
54404,37915
54435,37994
54481,38065
54540,38126
54610,38175
54688,38209
54771,38227
54856,38229
54939,38214
54966,38204
55127,38365
55127,38372
55069,38323
54995,38283
54914,38257
54830,38248
54824,38248
54820,38248
54736,38256
54655,38280
54581,38320
54515,38373
54461,38438
54421,38513
54396,38594
54387,38678
54395,38762
54419,38843
54458,38918
54511,38984
54576,39038
54635,39070
54635,39175
54621,39181
54550,39227
54489,39287
54441,39357
54408,39435
54390,39518
54389,39603
54404,39686
54435,39765
54481,39837
54540,39898
54610,39946
54652,39965
54587,39991
54557,40073
54822,40339
55088,40073
55058,39991
54991,39965
55019,39955
55090,39909
55093,39906
55855,40668
55868,40679
55882,40690
55882,40690
55883,40691
55899,40699
55914,40708
55915,40708
55916,40708
55932,40713
55949,40719
55950,40719
55951,40719
55968,40721
55985,40723
55987,40723
55987,40723
55987,40723
55988,40723
59157,40723
59172,40751
59220,40811
59272,40855
58759,40855
58742,40857
58725,40858
58724,40858
58723,40859
58706,40864
58690,40868
58689,40869
58688,40869
58672,40877
58657,40885
58656,40886
58655,40886
58642,40897
58628,40908
58627,40910
58627,40910
58627,40910
58627,40910
58386,41150
57674,41150
57667,41134
57620,41063
57560,41003
57490,40955
57412,40922
57328,40905
57244,40905
57160,40921
57081,40952
57010,40999
56950,41058
56902,41128
56868,41207
56851,41290
56849,41374
56865,41458
56896,41537
56942,41608
57001,41669
57071,41718
57148,41752
57231,41770
57316,41772
57400,41757
57479,41727
57551,41681
57612,41622
57661,41553
57673,41526
58464,41526
58481,41524
58499,41523
58500,41522
58501,41522
58517,41517
58534,41512
58535,41512
58536,41512
58551,41504
58566,41496
58567,41495
58568,41495
58581,41484
58595,41473
58596,41471
58596,41471
58596,41471
58597,41471
58837,41231
59253,41231
59224,41255
59175,41314
59138,41382
59115,41456
59107,41532
59114,41609
59136,41683
59172,41751
59220,41811
59279,41861
59347,41898
59420,41921
59497,41930
59502,41930
60182,41930
60259,41922
60332,41900
60400,41864
60460,41815
60499,41768
60540,41810
60540,42372
60512,42319
60464,42259
60405,42209
60338,42172
60264,42149
60187,42140
60182,42140
59502,42140
59425,42148
59352,42170
59284,42206
59224,42255
59175,42314
59138,42382
59115,42456
59107,42532
59114,42609
59136,42683
59172,42751
59220,42811
59279,42861
59347,42898
59420,42921
59497,42930
59502,42930
60182,42930
60259,42922
60332,42900
60400,42864
60460,42815
60509,42756
60540,42699
60540,43426
60355,43611
56988,43611
56704,43611
56704,42852
56702,42755
56681,42660
56652,42591
56572,42564
56459,42677
56459,42450
56432,42370
56341,42335
56245,42319
56148,42321
56054,42342
55985,42370
55958,42450
56208,42701
56459,42450
56459,42677
56322,42814
56572,43065
56652,43038
56687,42947
56704,42852
56704,43611
56459,43611
56459,43179
56208,42928
56095,43042
56095,42814
55844,42564
55764,42591
55729,42682
55712,42777
55715,42874
55736,42969
55764,43038
55844,43065
56095,42814
56095,43042
55958,43179
55985,43259
56075,43293
56171,43310
56268,43308
56363,43287
56432,43259
56459,43179
56459,43611
55688,43611
55396,43319
55396,43184
55464,43141
55522,43085
55569,43019
55602,42945
55620,42866
55621,42774
55605,42695
55574,42620
55530,42552
55473,42495
55405,42450
55396,42446
55396,42113
55935,41573
55958,41608
56017,41669
56086,41718
56164,41752
56247,41770
56332,41772
56416,41757
56495,41727
56567,41681
56628,41622
56677,41553
56712,41475
56730,41393
56732,41296
56715,41212
56683,41134
56636,41063
56576,41003
56506,40955
56427,40922
56344,40905
56259,40905
56176,40921
56097,40952
56026,40999
55965,41058
55917,41128
55908,41150
55905,41150
55888,41152
55870,41153
55870,41154
55869,41154
55852,41159
55835,41164
55834,41164
55833,41164
55818,41173
55803,41181
55802,41181
55801,41182
55788,41193
55774,41203
55773,41205
55773,41205
55773,41205
55772,41205
55338,41639
55338,40494
55336,40393
55315,40295
55283,40217
55201,40187
54936,40452
55201,40718
55283,40688
55320,40594
55338,40494
55338,41639
55088,41890
55088,40831
54822,40566
54557,40831
54587,40913
54681,40950
54780,40968
54881,40966
54980,40945
55058,40913
55088,40831
55088,41890
55075,41902
55064,41916
55053,41929
55053,41930
55052,41930
55044,41946
55036,41961
55035,41962
55035,41963
55030,41979
55024,41996
55024,41997
55024,41998
55022,42015
55020,42032
55020,42034
55020,42034
55020,42034
55020,42035
55020,42445
55016,42447
54948,42491
54890,42548
54845,42615
54813,42689
54796,42768
54795,42849
54809,42929
54839,43004
54883,43072
54939,43130
55006,43177
55020,43183
55020,43397
55022,43414
55024,43432
55024,43433
55024,43434
55029,43450
55034,43467
55034,43468
55035,43469
55043,43484
55051,43499
55051,43500
55052,43501
55063,43514
55074,43528
55075,43529
55075,43529
55075,43529
55075,43530
55477,43932
55490,43943
55504,43954
55505,43954
55505,43955
55521,43963
55536,43971
55537,43972
55538,43972
55554,43977
55571,43982
55572,43983
55573,43983
55590,43985
55607,43986
55609,43987
55609,43987
55609,43987
55610,43987
56988,43987
60433,43987
60450,43985
60467,43983
60468,43983
60469,43983
60486,43978
60502,43973
60503,43973
60504,43972
60519,43964
60535,43956
60536,43956
60536,43955
60550,43944
60563,43933
60565,43932
60565,43932
60565,43932
60565,43932
60861,43636
60872,43623
60883,43610
60883,43609
60884,43608
60892,43593
60900,43577
60901,43576
60901,43576
60906,43559
60912,43542
60912,43542
60912,43541
60914,43523
60916,43506
60916,43504
60916,43504
60916,43504
60916,43503
60916,41732
60916,41711
61550,41077
61561,41064
61572,41050
61572,41050
61573,41049
61581,41034
61589,41018
61590,41017
61590,41017
61595,41000
61601,40983
61601,40982
61601,40982
61603,40964
61605,40947
61605,40945
61605,40945
61605,40945
61605,40944
61605,37696
61603,37679
61601,37662
61601,37661
61601,37660
61596,37643
61591,37627
61591,37626
61590,37625
61582,37609
61574,37594
61574,37593
61573,37592
61562,37579
61551,37565
61550,37564
61550,37564
61550,37564
61550,37564
61348,37362
61348,37362
60467,36481
60454,36470
60440,36459
60439,36458
60439,36458
60423,36449
60408,36441
60407,36441
60406,36440
60390,36435
60373,36430
60372,36430
60371,36430
60354,36428
60337,36426
60335,36426
60335,36426
60335,36426
60334,36426
58267,36426
58250,36428
58233,36429
58232,36429
58231,36429
58214,36434
58197,36439
58197,36440
58196,36440
58180,36448
58165,36456
58164,36457
58163,36457
58150,36468
58136,36479
58135,36480
58135,36480
58135,36480
58134,36481
57839,36776
57828,36790
57817,36803
57817,36804
57816,36804
57808,36820
57799,36835
57799,36836
57799,36837
57795,36849
57795,36338
61255,36338
61515,36599
61776,36338
62185,36338
62185,44074
" /> 
</g>
<g style="fill:#FFFFFF; fill-opacity:0.0; 
stroke:#FFFFFF; stroke-width:19.685; stroke-opacity:1; 
stroke-linecap:round; stroke-linejoin:round;">
</g>
<g style="fill:#FFFFFF; fill-opacity:1.0; 
stroke:#FFFFFF; stroke-width:19.685; stroke-opacity:1; 
stroke-linecap:round; stroke-linejoin:round;">
<circle cx="56208.7" cy="42815" r="150.157" /> 
<circle cx="55208.7" cy="42815" r="150.157" /> 
</g> 
</svg>
